<mxfile host="app.diagrams.net" modified="2022-08-04T03:22:27.049Z" agent="5.0 (Macintosh; Intel Mac OS X 10_15_7) AppleWebKit/537.36 (KHTML, like Gecko) Chrome/103.0.0.0 Safari/537.36" etag="UGNNeDaCSyqU_M8VUPlH" version="20.2.2" type="github">
  <diagram id="SGY6bq7V2pBCBZCL2hUW" name="第 1 页">
    <mxGraphModel dx="946" dy="801" grid="1" gridSize="10" guides="1" tooltips="1" connect="1" arrows="1" fold="1" page="1" pageScale="1" pageWidth="827" pageHeight="1169" math="0" shadow="0">
      <root>
        <mxCell id="0" />
        <mxCell id="1" parent="0" />
        <mxCell id="PPNulN5kgXm6wHp-RG3v-1" value="事务 A" style="rounded=0;whiteSpace=wrap;html=1;fontSize=16;fillColor=#dae8fc;strokeColor=#6c8ebf;" vertex="1" parent="1">
          <mxGeometry x="120" y="200" width="340" height="66.66666666666667" as="geometry" />
        </mxCell>
        <mxCell id="PPNulN5kgXm6wHp-RG3v-2" value="事务 B" style="rounded=0;whiteSpace=wrap;html=1;fontSize=16;fillColor=#ffe6cc;strokeColor=#d79b00;" vertex="1" parent="1">
          <mxGeometry x="460" y="200" width="340" height="66.66666666666667" as="geometry" />
        </mxCell>
        <mxCell id="PPNulN5kgXm6wHp-RG3v-3" value="begin" style="rounded=0;whiteSpace=wrap;html=1;fontSize=16;" vertex="1" parent="1">
          <mxGeometry x="120" y="266.6666666666667" width="340" height="66.66666666666667" as="geometry" />
        </mxCell>
        <mxCell id="PPNulN5kgXm6wHp-RG3v-4" value="begin" style="rounded=0;whiteSpace=wrap;html=1;fontSize=16;" vertex="1" parent="1">
          <mxGeometry x="460" y="266.6666666666667" width="340" height="66.66666666666667" as="geometry" />
        </mxCell>
        <mxCell id="PPNulN5kgXm6wHp-RG3v-5" value="update t_student set score = 100&lt;br&gt;where&lt;b&gt; &lt;font color=&quot;#ff0000&quot;&gt;id = 25&lt;/font&gt;&lt;/b&gt;;" style="rounded=0;whiteSpace=wrap;html=1;fontSize=16;fillColor=#d5e8d4;strokeColor=#82b366;" vertex="1" parent="1">
          <mxGeometry x="120" y="333.33333333333337" width="340" height="66.66666666666667" as="geometry" />
        </mxCell>
        <mxCell id="PPNulN5kgXm6wHp-RG3v-6" value="update t_student set score = 100&lt;br&gt;where &lt;font color=&quot;#ff0000&quot;&gt;&lt;b&gt;id = 26&lt;/b&gt;&lt;/font&gt;;" style="rounded=0;whiteSpace=wrap;html=1;fontSize=16;fillColor=#d5e8d4;strokeColor=#82b366;" vertex="1" parent="1">
          <mxGeometry x="460" y="400" width="340" height="66.66666666666667" as="geometry" />
        </mxCell>
        <mxCell id="PPNulN5kgXm6wHp-RG3v-7" value="insert into t_student(id, no, name, age,score) value (&lt;font color=&quot;#ff0000&quot;&gt;&lt;b&gt;25&lt;/b&gt;&lt;/font&gt;, &#39;S0025&#39;, &#39;sony&#39;, 28, 90)&lt;br&gt;阻塞等待......" style="rounded=0;whiteSpace=wrap;html=1;fontSize=16;fillColor=#f8cecc;strokeColor=#b85450;" vertex="1" parent="1">
          <mxGeometry x="120" y="466.6666666666667" width="340" height="66.66666666666667" as="geometry" />
        </mxCell>
        <mxCell id="PPNulN5kgXm6wHp-RG3v-8" value="insert into t_student(id, no, name, age,score) value (&lt;font color=&quot;#ff0000&quot;&gt;&lt;b&gt;26&lt;/b&gt;&lt;/font&gt;, &#39;S0026&#39;, &#39;ace&#39;, 28, 90)&lt;br&gt;阻塞等待......" style="rounded=0;whiteSpace=wrap;html=1;fontSize=16;fillColor=#f8cecc;strokeColor=#b85450;" vertex="1" parent="1">
          <mxGeometry x="460" y="533.3333333333334" width="340" height="66.66666666666667" as="geometry" />
        </mxCell>
        <mxCell id="PPNulN5kgXm6wHp-RG3v-9" value="" style="rounded=0;whiteSpace=wrap;html=1;fontSize=16;" vertex="1" parent="1">
          <mxGeometry x="460" y="333.33333333333337" width="340" height="66.66666666666667" as="geometry" />
        </mxCell>
        <mxCell id="PPNulN5kgXm6wHp-RG3v-10" value="" style="rounded=0;whiteSpace=wrap;html=1;fontSize=16;" vertex="1" parent="1">
          <mxGeometry x="460" y="466.6666666666667" width="340" height="66.66666666666667" as="geometry" />
        </mxCell>
        <mxCell id="PPNulN5kgXm6wHp-RG3v-11" value="" style="rounded=0;whiteSpace=wrap;html=1;fontSize=16;" vertex="1" parent="1">
          <mxGeometry x="120" y="400" width="340" height="66.66666666666667" as="geometry" />
        </mxCell>
        <mxCell id="PPNulN5kgXm6wHp-RG3v-12" value="" style="rounded=0;whiteSpace=wrap;html=1;fontSize=16;" vertex="1" parent="1">
          <mxGeometry x="120" y="533.3333333333334" width="340" height="66.66666666666667" as="geometry" />
        </mxCell>
      </root>
    </mxGraphModel>
  </diagram>
</mxfile>
